<?xml version="1.0" encoding="UTF-8"?>
<svg id="Layer_2" data-name="Layer 2" xmlns="http://www.w3.org/2000/svg" viewBox="0 0 230.73 171.28">
  <defs>
    <style>
      .cls-1, .cls-2, .cls-3 {
        fill: #fff;
      }

      .cls-1, .cls-2, .cls-3, .cls-4, .cls-5 {
        stroke: #000;
        stroke-miterlimit: 10;
      }

      .cls-1, .cls-4 {
        stroke-width: 6.58px;
      }

      .cls-2, .cls-5 {
        stroke-width: 7px;
      }

      .cls-3 {
        stroke-width: 7.01px;
      }

      .cls-4, .cls-5 {
        fill: none;
      }
    </style>
  </defs>
  <g id="Layer_1-2" data-name="Layer 1">
    <g>
      <path class="cls-3" d="M166.58,131.09l54.05-.24c1.46-.02,2.65-3.66,2.7-5.26h0c.3-9.5,3.98-18.6,3.89-28.11-.26-26.06-23.29-27.07-31.25-26.65-1.48.08-2.72-1.14-2.85-2.76-3.29-40.86-34.49-35.69-43.69-33.25-1.4.37-2.8-.52-3.23-2.02-2.35-8.12-11.57-31.02-40.53-29.19-27.93,1.77-34.94,29.38-36.64,40.64-.3,2.01-2.31,3.11-3.94,2.16-14.66-8.59-37.47,4.5-37.47,4.5C-6.74,71.39,4.76,117.92,7.84,128.29c.37,1.24,1.41,2.08,2.6,2.08h38.89"/>
      <g>
        <g>
          <line class="cls-2" x1="54.65" y1="130.79" x2="139.33" y2="130.79"/>
          <path class="cls-5" d="M139.2,130.81c.08,0,.16,0,.24,0,10.21,0,18.49,8.28,18.49,18.49s-8.28,18.64-18.49,18.49c-6.66-.1-17.65-3.81-17.55-15.78"/>
          <g>
            <line class="cls-1" x1="54.66" y1="140" x2="100.16" y2="140"/>
            <path class="cls-4" d="M100.1,140.01s.09,0,.13,0c5.49,0,9.93,4.45,9.93,9.93s-4.45,10.02-9.93,9.93c-3.58-.05-9.48-2.05-9.43-8.48"/>
          </g>
        </g>
        <g>
          <line class="cls-2" x1="54.49" y1="109.65" x2="123.36" y2="109.65"/>
          <path class="cls-5" d="M123.25,109.63c.07,0,.13,0,.2,0,8.3,0,15.04-6.73,15.04-15.04,0-8.3-6.73-15.04-15.04-15.04-4.73,0-8.95,2.19-11.7,5.6"/>
        </g>
        <g>
          <line class="cls-2" x1="54.82" y1="120.61" x2="163.88" y2="120.61"/>
          <path class="cls-5" d="M163.71,120.58c.1,0,.21,0,.31,0,13.15,0,23.81-10.66,23.81-23.81,0-13.15-10.66-23.81-23.81-23.81-7.49,0-14.17,3.46-18.53,8.87"/>
        </g>
      </g>
    </g>
  </g>
</svg>