<?xml version="1.0" encoding="UTF-8"?>
<svg id="Layer_2" data-name="Layer 2" xmlns="http://www.w3.org/2000/svg" viewBox="0 0 243.85 171.15">
  <defs>
    <style>
      .cls-1 {
        fill: #fff;
        stroke-width: 7.01px;
      }

      .cls-1, .cls-2, .cls-3 {
        stroke: #000;
      }

      .cls-1, .cls-3 {
        stroke-miterlimit: 10;
      }

      .cls-2 {
        stroke-linecap: round;
        stroke-linejoin: round;
      }

      .cls-2, .cls-3 {
        fill: none;
        stroke-width: 7px;
      }
    </style>
  </defs>
  <g id="Layer_1-2" data-name="Layer 1">
    <g>
      <g>
        <circle class="cls-3" cx="65.32" cy="65.75" r="28.19"/>
        <g>
          <line class="cls-2" x1="55.49" y1="101.3" x2="48.57" y2="125.53"/>
          <line class="cls-2" x1="41.04" y1="93.36" x2="24.29" y2="112.19"/>
          <line class="cls-2" x1="31.46" y1="79.93" x2="8.21" y2="89.63"/>
          <line class="cls-2" x1="28.66" y1="63.68" x2="3.5" y2="62.32"/>
          <line class="cls-2" x1="33.19" y1="47.82" x2="11.11" y2="35.68"/>
          <line class="cls-2" x1="44.15" y1="35.49" x2="29.52" y2="14.98"/>
          <line class="cls-2" x1="59.38" y1="29.15" x2="55.1" y2="4.31"/>
          <line class="cls-2" x1="75.84" y1="30.03" x2="82.76" y2="5.8"/>
          <line class="cls-2" x1="90.3" y1="37.98" x2="107.05" y2="19.15"/>
          <line class="cls-2" x1="99.87" y1="51.41" x2="123.13" y2="41.71"/>
          <line class="cls-2" x1="102.67" y1="67.66" x2="127.84" y2="69.01"/>
          <line class="cls-2" x1="98.14" y1="83.52" x2="120.23" y2="95.66"/>
          <line class="cls-2" x1="87.18" y1="95.84" x2="101.81" y2="116.36"/>
          <line class="cls-2" x1="71.96" y1="102.19" x2="76.24" y2="127.02"/>
        </g>
      </g>
      <path class="cls-1" d="M240.34,134.76c-.26-26.06-23.29-27.07-31.25-26.65-1.48.08-2.72-1.14-2.85-2.76-3.29-40.86-34.49-35.69-43.69-33.25-1.4.37-2.8-.52-3.23-2.02-2.35-8.12-11.57-31.02-40.53-29.19-27.93,1.77-34.94,29.38-36.64,40.64-.3,2.01-2.31,3.11-3.94,2.16-14.66-8.59-37.47,4.5-37.47,4.5-34.34,20.47-22.84,67-19.76,77.37.37,1.24,1.41,2.08,2.6,2.08h57.56l152.64-1.88c1.46-.02,2.65-1.3,2.7-2.9h0c.3-9.5,3.98-18.6,3.89-28.11Z"/>
    </g>
  </g>
</svg>