<?xml version="1.0" encoding="UTF-8"?>
<svg id="Layer_2" data-name="Layer 2" xmlns="http://www.w3.org/2000/svg" viewBox="0 0 230.73 133.87">
  <defs>
    <style>
      .cls-1 {
        fill: #fff;
        stroke: #000;
        stroke-miterlimit: 10;
        stroke-width: 7.01px;
      }
    </style>
  </defs>
  <g id="Layer_1-2" data-name="Layer 1">
    <path class="cls-1" d="M227.22,97.48c-.26-26.06-23.29-27.07-31.25-26.65-1.48.08-2.72-1.14-2.85-2.76-3.29-40.86-34.49-35.69-43.69-33.25-1.4.37-2.8-.52-3.23-2.02-2.35-8.12-11.57-31.02-40.53-29.19-27.93,1.77-34.94,29.38-36.64,40.64-.3,2.01-2.31,3.11-3.94,2.16-14.66-8.59-37.47,4.5-37.47,4.5C-6.74,71.39,4.76,117.92,7.84,128.29c.37,1.24,1.41,2.08,2.6,2.08h57.56l152.64-1.88c1.46-.02,2.65-1.3,2.7-2.9h0c.3-9.5,3.98-18.6,3.89-28.11Z"/>
  </g>
</svg>